<svg xmlns="http://www.w3.org/2000/svg" width="980" height="360" viewBox="0 0 980 360">
  <defs>
    <filter id="shadow" x="-20%" y="-20%" width="140%" height="160%">
      <feDropShadow dx="0" dy="24" stdDeviation="28" flood-color="#000000" flood-opacity="0.5" />
    </filter>
    <g id="settings" fill="none" stroke="currentColor" stroke-width="2" stroke-linecap="round" stroke-linejoin="round">
      <path d="M9.671 4.136a2.34 2.34 0 0 1 4.659 0 2.34 2.34 0 0 0 3.319 1.915 2.34 2.34 0 0 1 2.33 4.033 2.34 2.34 0 0 0 0 3.831 2.34 2.34 0 0 1-2.33 4.033 2.34 2.34 0 0 0-3.319 1.915 2.34 2.34 0 0 1-4.659 0 2.34 2.34 0 0 0-3.32-1.915 2.34 2.34 0 0 1-2.33-4.033 2.34 2.34 0 0 0 0-3.831A2.34 2.34 0 0 1 6.35 6.051a2.34 2.34 0 0 0 3.319-1.915" />
      <circle cx="12" cy="12" r="3" />
    </g>
    <g id="layout" fill="none" stroke="currentColor" stroke-width="2" stroke-linecap="round" stroke-linejoin="round">
      <rect width="7" height="7" x="3" y="3" rx="1" />
      <rect width="7" height="7" x="14" y="3" rx="1" />
      <rect width="7" height="7" x="14" y="14" rx="1" />
      <rect width="7" height="7" x="3" y="14" rx="1" />
    </g>
    <g id="notebook" fill="none" stroke="currentColor" stroke-width="2" stroke-linecap="round" stroke-linejoin="round">
      <path d="M2 6h4" />
      <path d="M2 10h4" />
      <path d="M2 14h4" />
      <path d="M2 18h4" />
      <rect width="16" height="20" x="4" y="2" rx="2" />
      <path d="M16 2v20" />
    </g>
    <g id="message-square" fill="none" stroke="currentColor" stroke-width="2" stroke-linecap="round" stroke-linejoin="round">
      <path d="M22 17a2 2 0 0 1-2 2H6.828a2 2 0 0 0-1.414.586l-2.202 2.202A.71.71 0 0 1 2 21.286V5a2 2 0 0 1 2-2h16a2 2 0 0 1 2 2z" />
    </g>
    <g id="message-square-dashed" fill="none" stroke="currentColor" stroke-width="2" stroke-linecap="round" stroke-linejoin="round">
      <path d="M14 3h2" />
      <path d="M16 19h-2" />
      <path d="M2 12v-2" />
      <path d="M2 16v5.286a.71.71 0 0 0 1.212.502l1.149-1.149" />
      <path d="M20 19a2 2 0 0 0 2-2v-1" />
      <path d="M22 10v2" />
      <path d="M22 6V5a2 2 0 0 0-2-2" />
      <path d="M4 3a2 2 0 0 0-2 2v1" />
      <path d="M8 19h2" />
      <path d="M8 3h2" />
    </g>
    <g id="scroll-sync" fill="none" stroke="currentColor" stroke-width="2" stroke-linecap="round" stroke-linejoin="round">
      <path d="m4 6 3-3 3 3" />
      <path d="M7 17V3" />
      <path d="m14 6 3-3 3 3" />
      <path d="M17 17V3" />
      <path d="M4 21h16" />
    </g>
    <g id="message-square-plus" fill="none" stroke="currentColor" stroke-width="2" stroke-linecap="round" stroke-linejoin="round">
      <path d="M22 17a2 2 0 0 1-2 2H6.828a2 2 0 0 0-1.414.586l-2.202 2.202A.71.71 0 0 1 2 21.286V5a2 2 0 0 1 2-2h16a2 2 0 0 1 2 2z" />
      <path d="M12 8v6" />
      <path d="M9 11h6" />
    </g>
  </defs>

  <rect width="980" height="360" fill="#090a0d" />
  <text x="34" y="32" fill="#d8dbe3" font-family="Aptos, Segoe UI, sans-serif" font-size="14" font-weight="650">Current composer top-bar icons</text>

  <g transform="translate(34 58)" filter="url(#shadow)">
    <rect width="912" height="128" rx="34" fill="#2d2d2d" stroke="#414349" />

    <g transform="translate(28 27)">
      <circle cx="22" cy="22" r="22" fill="#3a3a3a" stroke="#4a4a4a" />
      <circle cx="22" cy="22" r="15" fill="#f7f8fa" />
      <path d="M15 31 L20 13 H34 L29 31 Z" fill="#0f2746" />
    </g>
    <text x="92" y="85" fill="#d8dbe3" font-family="Aptos, Segoe UI, sans-serif" font-size="16" font-weight="650" letter-spacing="7">PARALLEL AI</text>

    <g transform="translate(435 50)" fill="#9fa5b2">
      <circle cx="0" cy="0" r="2.5" />
      <circle cx="15" cy="0" r="2.5" />
      <circle cx="30" cy="0" r="2.5" />
      <circle cx="45" cy="0" r="2.5" />
      <circle cx="0" cy="15" r="2.5" />
      <circle cx="15" cy="15" r="2.5" />
      <circle cx="30" cy="15" r="2.5" />
      <circle cx="45" cy="15" r="2.5" />
    </g>

    <g transform="translate(610 49)" color="#e7e9ef">
      <g>
        <rect width="30" height="30" rx="15" fill="transparent" />
        <svg x="7.5" y="7.5" width="15" height="15" viewBox="0 0 24 24"><use href="#settings" /></svg>
      </g>
      <g transform="translate(34 0)">
        <rect width="30" height="30" rx="15" fill="transparent" />
        <svg x="7.5" y="7.5" width="15" height="15" viewBox="0 0 24 24"><use href="#layout" /></svg>
      </g>
      <g transform="translate(68 0)">
        <rect width="30" height="30" rx="15" fill="transparent" />
        <svg x="7.5" y="7.5" width="15" height="15" viewBox="0 0 24 24"><use href="#notebook" /></svg>
      </g>
      <g transform="translate(102 0)">
        <rect width="30" height="30" rx="15" fill="transparent" />
        <svg x="7.5" y="7.5" width="15" height="15" viewBox="0 0 24 24"><use href="#message-square" /></svg>
      </g>
      <g transform="translate(136 0)">
        <rect width="30" height="30" rx="15" fill="transparent" />
        <svg x="7.5" y="7.5" width="15" height="15" viewBox="0 0 24 24"><use href="#message-square-dashed" /></svg>
      </g>
      <g transform="translate(170 0)">
        <rect width="30" height="30" rx="15" fill="transparent" />
        <svg x="7.5" y="7.5" width="15" height="15" viewBox="0 0 24 24"><use href="#message-square-plus" /></svg>
      </g>
      <g transform="translate(204 0)">
        <rect width="30" height="30" rx="15" fill="#3b3b3b" />
        <svg x="7.5" y="7.5" width="15" height="15" viewBox="0 0 24 24" transform="rotate(180 15 15)"><use href="#scroll-sync" /></svg>
      </g>
    </g>
  </g>

  <g transform="translate(34 218)">
    <text x="0" y="0" fill="#d8dbe3" font-family="Aptos, Segoe UI, sans-serif" font-size="14" font-weight="650">Same icons, isolated with current labels</text>

    <g transform="translate(0 28)" color="#e7e9ef" font-family="Aptos, Segoe UI, sans-serif" font-size="11">
      <g>
        <circle cx="16" cy="16" r="15" fill="#22242a" stroke="#333640" />
        <svg x="8.5" y="8.5" width="15" height="15" viewBox="0 0 24 24"><use href="#settings" /></svg>
        <text x="16" y="58" text-anchor="middle" fill="#b9bec9">Settings</text>
      </g>
      <g transform="translate(118 0)">
        <circle cx="16" cy="16" r="15" fill="#22242a" stroke="#333640" />
        <svg x="8.5" y="8.5" width="15" height="15" viewBox="0 0 24 24"><use href="#layout" /></svg>
        <text x="16" y="58" text-anchor="middle" fill="#b9bec9">Layout</text>
      </g>
      <g transform="translate(236 0)">
        <circle cx="16" cy="16" r="15" fill="#22242a" stroke="#333640" />
        <svg x="8.5" y="8.5" width="15" height="15" viewBox="0 0 24 24"><use href="#notebook" /></svg>
        <text x="16" y="58" text-anchor="middle" fill="#b9bec9">Library</text>
      </g>
      <g transform="translate(354 0)">
        <circle cx="16" cy="16" r="15" fill="#22242a" stroke="#333640" />
        <svg x="8.5" y="8.5" width="15" height="15" viewBox="0 0 24 24"><use href="#message-square" /></svg>
        <text x="16" y="58" text-anchor="middle" fill="#b9bec9">New chats</text>
      </g>
      <g transform="translate(472 0)">
        <circle cx="16" cy="16" r="15" fill="#22242a" stroke="#333640" />
        <svg x="8.5" y="8.5" width="15" height="15" viewBox="0 0 24 24"><use href="#message-square-dashed" /></svg>
        <text x="16" y="58" text-anchor="middle" fill="#b9bec9">Temporary</text>
      </g>
      <g transform="translate(590 0)">
        <circle cx="16" cy="16" r="15" fill="#22242a" stroke="#333640" />
        <svg x="8.5" y="8.5" width="15" height="15" viewBox="0 0 24 24"><use href="#message-square-plus" /></svg>
        <text x="16" y="58" text-anchor="middle" fill="#b9bec9">Add pane</text>
      </g>
      <g transform="translate(708 0)">
        <circle cx="16" cy="16" r="15" fill="#333333" stroke="#424242" />
        <svg x="8.5" y="8.5" width="15" height="15" viewBox="0 0 24 24" transform="rotate(180 16 16)"><use href="#scroll-sync" /></svg>
        <text x="16" y="58" text-anchor="middle" fill="#b9bec9">Scroll sync</text>
      </g>
    </g>
  </g>
</svg>
