<svg xmlns="http://www.w3.org/2000/svg" width="876" height="274" viewBox="0 0 876 274">
  <rect width="876" height="274" fill="#090a0d" />
  <text x="24" y="16" fill="#d8dbe3" font-family="Aptos, Segoe UI, sans-serif" font-size="13" font-weight="650">Scroll sync icon options at toolbar scale</text>

  <g transform="translate(24 24)">
    <rect width="114" height="138" rx="22" fill="#0f1117" stroke="#2b2f39" />
    <circle cx="57" cy="42" r="21" fill="#24262e" stroke="#30343e" />
    <g transform="translate(46 31)" color="#e6e7ea">
      <svg width="22" height="22" viewBox="0 0 24 24" fill="none" stroke="currentColor" stroke-width="2" stroke-linecap="round" stroke-linejoin="round">
        <path d="M9 17H7A5 5 0 0 1 7 7h2" />
        <path d="M15 7h2a5 5 0 1 1 0 10h-2" />
        <line x1="8" x2="16" y1="12" y2="12" />
      </svg>
    </g>
    <text x="57" y="88" text-anchor="middle" fill="#f4f4f5" font-family="Aptos, Segoe UI, sans-serif" font-size="15" font-weight="650">Link</text>
    <text x="57" y="110" text-anchor="middle" fill="#a7abb7" font-family="Aptos, Segoe UI, sans-serif" font-size="11">my pick</text>
  </g>

  <g transform="translate(162 24)">
    <rect width="114" height="138" rx="22" fill="#0f1117" stroke="#2b2f39" />
    <circle cx="57" cy="42" r="21" fill="#24262e" stroke="#30343e" />
    <g transform="translate(46 31)" color="#e6e7ea">
      <svg width="22" height="22" viewBox="0 0 24 24" fill="none" stroke="currentColor" stroke-width="2" stroke-linecap="round" stroke-linejoin="round">
        <path d="M17 17h.01" />
        <path d="M13.828 10.172a4 4 0 0 1 0 5.656l-1.414 1.414a4 4 0 0 1-5.657-5.657l1.414-1.414" />
        <path d="M7 7h.01" />
        <path d="M10.172 13.828a4 4 0 0 1 0-5.656l1.414-1.414a4 4 0 1 1 5.657 5.657l-1.414 1.414" />
        <line x1="2" x2="22" y1="2" y2="22" />
      </svg>
    </g>
    <text x="57" y="88" text-anchor="middle" fill="#f4f4f5" font-family="Aptos, Segoe UI, sans-serif" font-size="15" font-weight="650">Unlink</text>
    <text x="57" y="110" text-anchor="middle" fill="#a7abb7" font-family="Aptos, Segoe UI, sans-serif" font-size="11">disabled state</text>
  </g>

  <g transform="translate(300 24)">
    <rect width="114" height="138" rx="22" fill="#0f1117" stroke="#2b2f39" />
    <circle cx="57" cy="42" r="21" fill="#24262e" stroke="#30343e" />
    <g transform="translate(46 31)" color="#e6e7ea">
      <svg width="22" height="22" viewBox="0 0 24 24" fill="none" stroke="currentColor" stroke-width="2" stroke-linecap="round" stroke-linejoin="round">
        <path d="M8 21h12a2 2 0 0 0 2-2v-2H10v2a2 2 0 1 1-4 0V5a2 2 0 1 0-4 0v3h4" />
        <path d="M19 17V5a2 2 0 0 0-2-2H4" />
        <path d="M15 8h-5" />
        <path d="M15 12h-5" />
      </svg>
    </g>
    <text x="57" y="88" text-anchor="middle" fill="#f4f4f5" font-family="Aptos, Segoe UI, sans-serif" font-size="15" font-weight="650">Scroll</text>
    <text x="57" y="110" text-anchor="middle" fill="#a7abb7" font-family="Aptos, Segoe UI, sans-serif" font-size="11">literal</text>
  </g>

  <g transform="translate(438 24)">
    <rect width="114" height="138" rx="22" fill="#0f1117" stroke="#2b2f39" />
    <circle cx="57" cy="42" r="21" fill="#24262e" stroke="#30343e" />
    <g transform="translate(46 31)" color="#e6e7ea">
      <svg width="22" height="22" viewBox="0 0 24 24" fill="none" stroke="currentColor" stroke-width="2" stroke-linecap="round" stroke-linejoin="round">
        <path d="M21 6H3" />
        <path d="M21 12H3" />
        <path d="M21 18H3" />
      </svg>
    </g>
    <text x="57" y="88" text-anchor="middle" fill="#f4f4f5" font-family="Aptos, Segoe UI, sans-serif" font-size="15" font-weight="650">Rows</text>
    <text x="57" y="110" text-anchor="middle" fill="#a7abb7" font-family="Aptos, Segoe UI, sans-serif" font-size="11">minimal</text>
  </g>

  <g transform="translate(576 24)">
    <rect width="114" height="138" rx="22" fill="#0f1117" stroke="#2b2f39" />
    <circle cx="57" cy="42" r="21" fill="#24262e" stroke="#30343e" />
    <g transform="translate(46 31)" color="#e6e7ea">
      <svg width="22" height="22" viewBox="0 0 24 24" fill="none" stroke="currentColor" stroke-width="2" stroke-linecap="round" stroke-linejoin="round">
        <path d="M21 12a9 9 0 0 0-9-9 9.75 9.75 0 0 0-6.74 2.74L3 8" />
        <path d="M3 3v5h5" />
        <path d="M3 12a9 9 0 0 0 9 9 9.75 9.75 0 0 0 6.74-2.74L21 16" />
        <path d="M16 16h5v5" />
      </svg>
    </g>
    <text x="57" y="88" text-anchor="middle" fill="#f4f4f5" font-family="Aptos, Segoe UI, sans-serif" font-size="15" font-weight="650">Refresh</text>
    <text x="57" y="110" text-anchor="middle" fill="#a7abb7" font-family="Aptos, Segoe UI, sans-serif" font-size="11">sync-ish</text>
  </g>

  <g transform="translate(714 24)">
    <rect width="114" height="138" rx="22" fill="#0f1117" stroke="#2b2f39" />
    <circle cx="57" cy="42" r="21" fill="#24262e" stroke="#30343e" />
    <g transform="translate(46 31)" color="#e6e7ea">
      <svg width="22" height="22" viewBox="0 0 24 24" fill="none" stroke="currentColor" stroke-width="2" stroke-linecap="round" stroke-linejoin="round">
        <rect x="3" y="3" width="18" height="18" rx="2" />
        <path d="M9 3v18" />
        <path d="M15 8h3" />
        <path d="M15 12h3" />
        <path d="M15 16h3" />
      </svg>
    </g>
    <text x="57" y="88" text-anchor="middle" fill="#f4f4f5" font-family="Aptos, Segoe UI, sans-serif" font-size="15" font-weight="650">Panel</text>
    <text x="57" y="110" text-anchor="middle" fill="#a7abb7" font-family="Aptos, Segoe UI, sans-serif" font-size="11">app-like</text>
  </g>

  <g transform="translate(24 184)">
    <text x="0" y="0" fill="#c9ccd4" font-family="Aptos, Segoe UI, sans-serif" font-size="14" font-weight="650">Recommended on/off treatment:</text>
    <g transform="translate(0 18)">
      <rect width="204" height="48" rx="24" fill="#2d2d2d" stroke="#3b3d42" />
      <circle cx="30" cy="24" r="17" fill="#404040" />
      <g transform="translate(19 13)" color="#f2f2f2">
        <svg width="22" height="22" viewBox="0 0 24 24" fill="none" stroke="currentColor" stroke-width="2" stroke-linecap="round" stroke-linejoin="round">
          <path d="M9 17H7A5 5 0 0 1 7 7h2" />
          <path d="M15 7h2a5 5 0 1 1 0 10h-2" />
          <line x1="8" x2="16" y1="12" y2="12" />
        </svg>
      </g>
      <text x="62" y="29" fill="#f2f2f2" font-family="Aptos, Segoe UI, sans-serif" font-size="13" font-weight="600">Scroll sync on</text>
    </g>
    <g transform="translate(224 18)">
      <rect width="210" height="48" rx="24" fill="#2d2d2d" stroke="#3b3d42" />
      <circle cx="30" cy="24" r="17" fill="#363636" />
      <g transform="translate(19 13)" color="#a8a8a8">
        <svg width="22" height="22" viewBox="0 0 24 24" fill="none" stroke="currentColor" stroke-width="2" stroke-linecap="round" stroke-linejoin="round">
          <path d="M17 17h.01" />
          <path d="M13.828 10.172a4 4 0 0 1 0 5.656l-1.414 1.414a4 4 0 0 1-5.657-5.657l1.414-1.414" />
          <path d="M7 7h.01" />
          <path d="M10.172 13.828a4 4 0 0 1 0-5.656l1.414-1.414a4 4 0 1 1 5.657 5.657l-1.414 1.414" />
          <line x1="2" x2="22" y1="2" y2="22" />
        </svg>
      </g>
      <text x="62" y="29" fill="#c8c8c8" font-family="Aptos, Segoe UI, sans-serif" font-size="13" font-weight="600">Scroll sync off</text>
    </g>
  </g>
</svg>
